<svg t="1694164336963" class="icon" viewBox="0 0 1024 1024" version="1.1" xmlns="http://www.w3.org/2000/svg" p-id="7422" width="200" height="200"><path d="M811 228.6L528 72.3c-32.2-17.8-72.7-6.1-90.4 26.1-17.8 32.1-6.1 72.7 26.1 90.5l9.6 5.3-159.1 216.3-4.3-2.4c-36.8-20.4-83.1-7-103.4 29.8l-18.4 33.3c-20.3 36.8-7 83 29.8 103.4l108.8 60.1-109 254.8c-12.7 23-4.4 51.9 18.6 64.6 23 12.7 51.9 4.4 64.6-18.6L458 707.3l109.4 60.5c36.8 20.3 83.1 7 103.4-29.8l18.4-33.2c20.3-36.8 7-83.1-29.8-103.4l-20-11.1 105.2-246.1 2 1.1c32.2 17.8 72.7 6.1 90.4-26.1 17.8-32.3 6.2-72.8-26-90.6z" p-id="7423"></path></svg>