<svg t="1693032822240" class="icon" viewBox="0 0 1024 1024" version="1.1" xmlns="http://www.w3.org/2000/svg" p-id="981" width="32" height="32"><path d="M929.45 513.72c-16.84 0-30.5 13.66-30.5 30.5v276.46c0 24.89-20.25 45.14-45.14 45.14l-683.62 0.06c-12.06 0-23.4-4.7-31.93-13.22-8.53-8.53-13.22-19.87-13.22-31.93l0.07-276.51c0-16.84-13.65-30.5-30.49-30.51h-0.01c-16.84 0-30.5 13.65-30.5 30.49l-0.07 276.51c-0.01 28.36 11.03 55.02 31.08 75.07 20.05 20.05 46.71 31.1 75.07 31.09l683.62-0.06c58.52-0.01 106.13-47.62 106.13-106.14V544.22c0.01-16.85-13.65-30.5-30.49-30.5z" p-id="982"></path><path d="M498.75 733.91c3.36 3.73 8.21 5.97 13.43 5.97 4.85 0 9.7-2.24 13.06-5.97L701.68 522.4c4.1-4.85 4.85-12.31 2.24-18.28-2.98-5.97-8.95-9.7-15.67-9.7h-144V129.2c0-17.53-14.55-32.08-32.08-32.08-17.91 0-32.46 14.55-32.46 32.08v365.22h-144c-6.71 0-12.68 3.73-15.67 9.7-2.61 5.97-1.87 13.43 2.61 18.28l176.1 211.51z" p-id="983"></path></svg>