<svg t="1693745276871" class="icon" viewBox="0 0 1024 1024" version="1.1" xmlns="http://www.w3.org/2000/svg" p-id="2358" width="200" height="200"><path d="M746.666667 426.666667h-64v-170.133334a170.666667 170.666667 0 1 0-341.333334 0V426.666667h-64a106.773333 106.773333 0 0 0-106.666666 106.666666v298.666667a106.773333 106.773333 0 0 0 106.666666 106.666667h469.333334a106.773333 106.773333 0 0 0 106.666666-106.666667V533.333333a106.773333 106.773333 0 0 0-106.666666-106.666666z m-354.176-170.133334a119.509333 119.509333 0 1 1 239.018666 0V426.666667H392.490667zM533.333333 746.666667a21.333333 21.333333 0 0 1-42.666666 0v-128a21.333333 21.333333 0 0 1 42.666666 0z" fill="#646464" p-id="2359"></path></svg>