<svg t="1693745600347" class="icon" viewBox="0 0 1024 1024" version="1.1" xmlns="http://www.w3.org/2000/svg" p-id="2077" width="200" height="200"><path d="M810.666667 128H213.333333a85.333333 85.333333 0 0 0-85.333333 85.333333v597.333334a85.333333 85.333333 0 0 0 85.333333 85.333333h597.333334a85.333333 85.333333 0 0 0 85.333333-85.333333V213.333333a85.333333 85.333333 0 0 0-85.333333-85.333333z m-106.666667 597.333333H320a21.333333 21.333333 0 0 1 0-42.666666h384a21.333333 21.333333 0 0 1 0 42.666666z m0-192H320a21.333333 21.333333 0 0 1 0-42.666666h384a21.333333 21.333333 0 0 1 0 42.666666z m0-192H320a21.333333 21.333333 0 0 1 0-42.666666h384a21.333333 21.333333 0 0 1 0 42.666666z" fill="#646464" p-id="2078"></path></svg>