<svg t="1693745188782" class="icon" viewBox="0 0 1109 1024" version="1.1" xmlns="http://www.w3.org/2000/svg" p-id="9174" width="200" height="200"><path d="M0 1024v-85.333333h1109.333333v85.333333H0z m938.666667-170.666667H170.666667a170.666667 170.666667 0 0 1-170.666667-170.666666V170.666667a170.666667 170.666667 0 0 1 170.666667-170.666667h768a170.666667 170.666667 0 0 1 170.666666 170.666667v512a170.666667 170.666667 0 0 1-170.666666 170.666666z m2.645333-565.930666l-20.138667-73.728-75.008 19.754666-150.058666 39.509334 20.096 73.728 106.368-27.989334-177.322667 174.165334-188.586667-164.693334 0.938667-0.938666L402.602667 273.066667 128 543.061333l54.912 53.973334 218.965333-215.125334 235.733334 205.866667 1.066666-0.896 10.368 10.154667 233.685334-229.546667 23.765333 87.125333L981.333333 434.858667l-40.234666-147.456z" fill="#3C464F" p-id="9175"></path></svg>