<svg t="1694164549200" class="icon" viewBox="0 0 1024 1024" version="1.1" xmlns="http://www.w3.org/2000/svg" p-id="12277" width="200" height="200"><path d="M499.498667 97.834667A42.496 42.496 0 0 0 469.333333 85.333333H256a42.496 42.496 0 0 0-30.165333 12.501334l-128 128A42.496 42.496 0 0 0 85.333333 256v213.333333c0 11.349333 4.48 22.186667 12.501334 30.165334l426.666666 426.666666a42.538667 42.538667 0 0 0 60.330667 0l341.333333-341.333333a42.624 42.624 0 0 0 0-60.330667l-426.666666-426.666666zM356.394667 426.666667a70.272 70.272 0 1 1-0.042667-140.501334A70.272 70.272 0 0 1 356.394667 426.666667z" p-id="12278"></path></svg>