<svg t="1694164602985" class="icon" viewBox="0 0 1024 1024" version="1.1" xmlns="http://www.w3.org/2000/svg" p-id="14164" width="200" height="200"><path d="M610.787 430.092c8.579-11.392 14.296-25.635 14.296-42.721 0-14.243-5.717-25.637-11.437-37.028-5.717-8.542-17.166-17.086-28.601-22.782-11.442-5.698-37.18-8.542-71.5-8.542h-94.38v139.556h91.522c25.738 0 45.758-2.849 62.917-5.7 14.305-2.844 28.602-11.388 37.183-22.783zM512 0L98.093 133.973l2.096 521.713 0.469 5.65c0.752 3.43 16.67 86.315 96.314 166.154 61.238 61.553 211.399 141.945 275.48 176.261 10.07 5.405 17.576 9.395 21.888 11.844l15.21 8.405 18.68-9.666c37.458-18.72 227.954-115.69 298.745-186.728 79.727-79.916 95.646-162.796 96.32-166.231l2.612-527.362L512 0z m221.755 740.53c-2.855 5.698-8.578 11.392-17.162 14.242-8.577 2.845-17.155 5.694-25.737 5.694-11.437 0-20.02-2.844-28.597-8.543-8.582-5.693-14.301-11.392-20.024-19.936-5.714-8.54-14.301-19.938-22.876-37.025l-40.038-68.353c-14.302-25.635-28.597-45.567-40.04-56.964-11.441-11.39-22.881-19.932-34.32-25.626-11.442-5.698-28.602-8.544-45.762-8.544h-37.175v162.338c0 19.936-5.72 34.179-14.302 45.566-8.578 8.55-22.88 14.245-37.18 14.245-14.296 0-28.596-5.694-37.175-17.084-8.582-8.547-14.302-25.635-14.302-45.576V307.62c0-22.785 5.718-39.878 14.302-48.417 11.437-8.549 25.737-14.247 48.618-14.247h165.879c17.663 0 33.626 0 47.878 1.315 4.208 0.387 8.27 0.885 12.18 1.535 14.302 2.848 28.597 5.699 42.894 11.397 17.166 5.694 31.466 17.087 42.903 28.48 14.302 11.388 22.884 25.631 28.602 42.717 5.72 14.243 8.577 34.18 8.577 51.266 0 39.878-11.437 68.358-31.455 91.14-22.88 22.787-54.345 39.88-97.243 48.422 17.166 8.542 34.324 22.786 51.485 42.718 14.297 19.941 28.597 39.873 42.894 59.813 11.442 19.943 22.882 39.88 31.456 62.66 8.578 17.087 11.442 28.475 11.442 34.174 0.002 5.695-2.863 14.238-5.722 19.936z m0 0" p-id="14165"></path></svg>